<svg xmlns="http://www.w3.org/2000/svg" viewBox="0 0 1600 900" role="img" aria-label="Machine body">
  <defs>
    <linearGradient id="body" x1="0" y1="0" x2="0" y2="1">
      <stop offset="0" stop-color="#5b4c6a"/>
      <stop offset="0.23" stop-color="#2d2437"/>
      <stop offset="0.72" stop-color="#191622"/>
      <stop offset="1" stop-color="#0e0c12"/>
    </linearGradient>
    <linearGradient id="chrome" x1="0" y1="0" x2="1" y2="0">
      <stop offset="0" stop-color="#fff4d3" stop-opacity="0.2"/>
      <stop offset="0.24" stop-color="#fff4d3" stop-opacity="0.05"/>
      <stop offset="0.5" stop-color="#ffffff" stop-opacity="0.12"/>
      <stop offset="0.76" stop-color="#fff4d3" stop-opacity="0.04"/>
      <stop offset="1" stop-color="#fff4d3" stop-opacity="0.18"/>
    </linearGradient>
    <radialGradient id="glow" cx="50%" cy="28%" r="48%">
      <stop offset="0" stop-color="#ffdf95" stop-opacity="0.28"/>
      <stop offset="0.45" stop-color="#ffdf95" stop-opacity="0.08"/>
      <stop offset="1" stop-color="#ffdf95" stop-opacity="0"/>
    </radialGradient>
  </defs>

  <rect width="1600" height="900" rx="80" fill="url(#body)"/>
  <rect x="42" y="42" width="1516" height="816" rx="66" fill="none" stroke="url(#chrome)" stroke-width="6"/>
  <rect x="92" y="84" width="1416" height="730" rx="58" fill="url(#glow)"/>

  <g opacity="0.42">
    <rect x="120" y="98" width="500" height="60" rx="18" fill="#fff1c4"/>
    <rect x="985" y="98" width="360" height="60" rx="18" fill="#fff1c4"/>
  </g>

  <g opacity="0.55">
    <rect x="132" y="192" width="336" height="548" rx="34" fill="#15131a"/>
    <rect x="1130" y="192" width="320" height="548" rx="34" fill="#15131a"/>
    <rect x="491" y="192" width="586" height="548" rx="34" fill="#201925"/>
  </g>

  <g opacity="0.22">
    <circle cx="250" cy="798" r="36" fill="#fff2cf"/>
    <circle cx="1372" cy="798" r="36" fill="#fff2cf"/>
  </g>

  <rect x="106" y="108" width="1388" height="684" rx="54" fill="none" stroke="#000" stroke-opacity="0.28" stroke-width="10"/>
</svg>
