<svg xmlns="http://www.w3.org/2000/svg" viewBox="0 0 560 420" role="img" aria-label="Next button skin">
  <defs>
    <linearGradient id="plate" x1="0" y1="0" x2="0" y2="1">
      <stop offset="0" stop-color="#f07bd5"/>
      <stop offset="0.4" stop-color="#8f2f79"/>
      <stop offset="1" stop-color="#442137"/>
    </linearGradient>
    <linearGradient id="inner" x1="0" y1="0" x2="1" y2="1">
      <stop offset="0" stop-color="#17131c"/>
      <stop offset="1" stop-color="#09070b"/>
    </linearGradient>
  </defs>

  <rect x="18" y="18" width="524" height="384" rx="46" fill="url(#plate)"/>
  <rect x="36" y="36" width="488" height="348" rx="34" fill="#231225" opacity="0.52"/>
  <rect x="56" y="60" width="448" height="300" rx="28" fill="url(#inner)" stroke="#ffd9f5" stroke-opacity="0.18"/>
  <path d="M204 143h112l66 67-66 67H204l66-67-66-67z" fill="#ffe4f7" fill-opacity="0.86"/>
  <path d="M222 160h74l39 50-39 50h-74l39-50-39-50z" fill="#7a2e68" fill-opacity="0.5"/>
  <rect x="92" y="296" width="376" height="22" rx="11" fill="#fff0fb" fill-opacity="0.28"/>
  <circle cx="92" cy="96" r="12" fill="#fff4d5" fill-opacity="0.5"/>
  <circle cx="468" cy="96" r="12" fill="#fff4d5" fill-opacity="0.5"/>
  <circle cx="92" cy="324" r="12" fill="#fff4d5" fill-opacity="0.25"/>
  <circle cx="468" cy="324" r="12" fill="#fff4d5" fill-opacity="0.25"/>
</svg>
